<?xml version="1.0" encoding="utf-8"?>
<!-- Generator: Adobe Illustrator 16.0.0, SVG Export Plug-In . SVG Version: 6.00 Build 0)  -->
<!DOCTYPE svg PUBLIC "-//W3C//DTD SVG 1.1//EN" "http://www.w3.org/Graphics/SVG/1.1/DTD/svg11.dtd">
<svg version="1.1" id="Layer_1" xmlns="http://www.w3.org/2000/svg" xmlns:xlink="http://www.w3.org/1999/xlink" x="0px" y="0px"
	 width="268.77px" height="390.25px" viewBox="0 0 268.77 390.25" enable-background="new 0 0 268.77 390.25" xml:space="preserve">
<rect y="0.004" fill="#353635" width="268.766" height="390.246"/>
<g>
	<path fill="#171617" d="M48.255,281.925l21.985-13.658c0.613-0.382,1.409,0.06,1.409,0.781v53.233c0,0.479,0.366,0.881,0.845,0.919
		c6.533,0.551,48.785,2.608,48.785-36.063c0-36.674-32.487-38.913-49.165-37.249l-24.173,16.033
		c-0.054,0.031-0.124-0.007-0.124-0.069v-39.909c0-0.508,0.415-0.926,0.926-0.926h33.896c0,0,62.987-0.055,62.987,61.37
		c0,61.43-60.036,61.43-60.036,61.43H48.742c-0.512,0-0.926-0.414-0.926-0.924v-64.185
		C47.817,282.389,47.983,282.093,48.255,281.925"/>
	<g>
		<path fill="#171617" d="M196.427,249.753c-0.075,0.075-0.175,0.116-0.282,0.116h-15.104c0,0-19.182,0-31.215,21.716
			c-0.007,0.007-0.023,0.014-0.027,0c-0.131-0.851-2.561-15.601-12.255-25.646c0,0,18.161-21.109,44.709-21.109h38.512
			c0.072,0,0.104,0.083,0.063,0.128L196.427,249.753z"/>
		<path fill="#171617" d="M150.078,300.718c-0.469,2.522-2.902,15.147-12.338,26.038c0,0,16.055,20.751,45.728,21.099
			c24.894,0.294,34.399,0.098,36.815,0.024c0.371-0.011,0.668-0.32,0.668-0.688v-50.009v-22.635c0-0.52-0.548-0.854-1.006-0.615
			l-43.686,22.496c-0.372,0.196-0.237,0.754,0.187,0.754h18.826c0.384,0,0.688,0.311,0.692,0.688l0.169,24.142
			c0,0.379-0.303,0.686-0.682,0.695l-11.259,0.23c-4.465,0.093-8.911-0.683-13.042-2.379c-6.9-2.844-16.396-8.633-20.849-19.855
			C150.26,300.59,150.101,300.601,150.078,300.718"/>
	</g>
</g>
</svg>
