<?xml version="1.0" encoding="utf-8"?>
<!-- Generator: Adobe Illustrator 16.0.0, SVG Export Plug-In . SVG Version: 6.00 Build 0)  -->
<!DOCTYPE svg PUBLIC "-//W3C//DTD SVG 1.1//EN" "http://www.w3.org/Graphics/SVG/1.1/DTD/svg11.dtd">
<svg version="1.1" id="Layer_1" xmlns="http://www.w3.org/2000/svg" xmlns:xlink="http://www.w3.org/1999/xlink" x="0px" y="0px"
	 width="500px" height="500px" viewBox="0 0 500 500" enable-background="new 0 0 500 500" xml:space="preserve">
<g>
	<path fill="#181718" d="M499.998,436.508c0,35.065-28.426,63.492-63.489,63.492H63.493C28.427,500,0,471.573,0,436.508V63.491
		C0,28.426,28.427,0,63.493,0h373.018C471.574,0,500,28.426,500,63.491v373.017H499.998z"/>
	<g>
		<path fill="#FFFFFF" d="M88.112,235.238l41.213-25.601c1.149-0.715,2.643,0.11,2.643,1.463v99.79c0,0.897,0.687,1.652,1.583,1.724
			c12.247,1.034,91.452,4.889,91.452-67.601c0-68.75-60.899-72.949-92.163-69.828l-45.314,30.054
			c-0.102,0.058-0.233-0.012-0.233-0.13v-74.813c0-0.954,0.78-1.736,1.736-1.736h63.54c0,0,118.078-0.103,118.078,115.045
			c0,115.157-112.544,115.157-112.544,115.157H89.026c-0.958,0-1.735-0.775-1.735-1.733V236.705
			C87.291,236.11,87.601,235.554,88.112,235.238"/>
		<g>
			<path fill="#FFFFFF" d="M365.874,174.93c-0.142,0.141-0.327,0.22-0.527,0.22H337.03c0,0-35.956,0-58.515,40.707
				c-0.015,0.013-0.044,0.027-0.05,0c-0.244-1.595-4.802-29.244-22.973-48.074c0,0,34.042-39.573,83.81-39.573h72.194
				c0.134,0,0.196,0.157,0.121,0.239L365.874,174.93z"/>
			<path fill="#FFFFFF" d="M278.989,270.469c-0.883,4.728-5.44,28.394-23.126,48.813c0,0,30.095,38.897,85.717,39.554
				c46.665,0.547,64.485,0.18,69.014,0.044c0.694-0.019,1.256-0.601,1.256-1.286v-93.746v-42.433c0-0.973-1.028-1.602-1.891-1.152
				l-81.889,42.171c-0.697,0.367-0.444,1.416,0.346,1.416h35.293c0.718,0,1.291,0.579,1.296,1.289l0.318,45.255
				c0,0.712-0.569,1.285-1.28,1.303l-21.107,0.434c-8.368,0.175-16.703-1.279-24.445-4.455
				c-12.938-5.336-30.736-16.187-39.084-37.226C279.331,270.229,279.031,270.25,278.989,270.469"/>
		</g>
	</g>
</g>
</svg>
