<?xml version="1.0" encoding="utf-8"?>
<!-- Generator: Adobe Illustrator 16.0.0, SVG Export Plug-In . SVG Version: 6.00 Build 0)  -->
<!DOCTYPE svg PUBLIC "-//W3C//DTD SVG 1.1//EN" "http://www.w3.org/Graphics/SVG/1.1/DTD/svg11.dtd">
<svg version="1.1" id="Layer_1" xmlns="http://www.w3.org/2000/svg" xmlns:xlink="http://www.w3.org/1999/xlink" x="0px" y="0px"
	 width="525.13px" height="57.16px" viewBox="0 0 525.13 57.16" enable-background="new 0 0 525.13 57.16" xml:space="preserve">
<g>
	<path fill="#FFFFFF" d="M115.069,52.354c0,2.575-2.091,4.666-4.664,4.666H4.662c-2.576,0-4.664-2.091-4.664-4.666V4.666
		c0-2.573,2.087-4.664,4.664-4.664h105.744c2.572,0,4.664,2.09,4.664,4.664L115.069,52.354L115.069,52.354z"/>
	<g>
		<g>
			<polygon fill="#0E67B2" points="51.37,43.055 43.8,43.055 48.53,13.985 56.096,13.985 			"/>
			<path fill="#0E67B2" d="M37.436,13.985L30.22,33.977l-0.857-4.304l0.003,0.004l-2.548-13.074c0,0-0.309-2.618-3.588-2.618H11.304
				l-0.141,0.492c0,0,3.648,0.759,7.917,3.325l6.575,25.254h7.882l12.04-29.071H37.436z"/>
			<path fill="#0E67B2" d="M96.957,43.055h6.947l-6.059-29.071h-6.083c-2.808,0-3.494,2.168-3.494,2.168L76.98,43.054h7.886
				l1.582-4.319h9.622L96.957,43.055z M88.627,32.771l3.979-10.877l2.238,10.877H88.627z"/>
			<path fill="#0E67B2" d="M77.576,20.975l1.079-6.242c0,0-3.332-1.265-6.808-1.265c-3.753,0-12.672,1.642-12.672,9.619
				c0,7.515,10.465,7.604,10.465,11.547s-9.387,3.241-12.483,0.754l-1.128,6.521c0,0,3.38,1.646,8.543,1.646
				c5.163,0,12.954-2.674,12.954-9.952c0-7.556-10.56-8.258-10.56-11.547C66.966,18.768,74.335,19.189,77.576,20.975z"/>
		</g>
		<path fill="#FAA735" d="M29.367,29.677l-2.548-13.074c0,0-0.309-2.618-3.588-2.618H11.304l-0.141,0.492
			c0,0,5.731,1.192,11.231,5.641C27.652,24.37,29.367,29.677,29.367,29.677z"/>
	</g>
</g>
<g>
	<path fill="#FFFFFF" d="M251.717,52.496c0,2.572-2.087,4.664-4.66,4.664H141.313c-2.572,0-4.667-2.092-4.667-4.664V4.809
		c0-2.576,2.095-4.667,4.667-4.667h105.744c2.573,0,4.66,2.091,4.66,4.667V52.496L251.717,52.496z"/>
	<g>
		<path fill="#020202" d="M178.073,48.218v-2.606c0-1.002-0.604-1.656-1.652-1.656c-0.52,0-1.089,0.177-1.476,0.742
			c-0.309-0.482-0.738-0.742-1.392-0.742c-0.436,0-0.872,0.131-1.216,0.611v-0.522h-0.914v4.175h0.914v-2.302
			c0-0.746,0.387-1.091,0.999-1.091c0.612,0,0.914,0.391,0.914,1.091v2.302h0.914v-2.302c0-0.746,0.436-1.091,0.999-1.091
			c0.611,0,0.914,0.391,0.914,1.091v2.302L178.073,48.218L178.073,48.218z M191.596,44.043h-1.483v-1.264h-0.907v1.264h-0.829v0.828
			h0.829v1.908c0,0.959,0.394,1.525,1.434,1.525c0.386,0,0.822-0.131,1.131-0.307l-0.26-0.78c-0.267,0.177-0.562,0.216-0.787,0.216
			c-0.428,0-0.611-0.261-0.611-0.695v-1.867h1.483V44.043L191.596,44.043z M199.334,43.955c-0.521,0-0.872,0.259-1.09,0.611v-0.523
			h-0.906v4.175h0.906v-2.349c0-0.699,0.31-1.086,0.872-1.086c0.175,0,0.393,0.043,0.562,0.088l0.26-0.875
			C199.769,43.955,199.509,43.955,199.334,43.955L199.334,43.955L199.334,43.955z M187.638,44.39
			c-0.436-0.306-1.04-0.437-1.693-0.437c-1.048,0-1.744,0.523-1.744,1.347c0,0.7,0.527,1.09,1.441,1.22l0.429,0.045
			c0.478,0.084,0.737,0.215,0.737,0.434c0,0.306-0.344,0.527-0.956,0.527c-0.604,0-1.082-0.223-1.391-0.44l-0.429,0.696
			c0.471,0.349,1.125,0.523,1.778,0.523c1.223,0,1.911-0.566,1.911-1.35c0-0.742-0.562-1.133-1.426-1.262l-0.443-0.043
			c-0.393-0.041-0.695-0.135-0.695-0.391c0-0.307,0.302-0.479,0.788-0.479c0.52,0,1.047,0.213,1.307,0.35L187.638,44.39
			L187.638,44.39z M211.9,43.955c-0.526,0-0.872,0.259-1.089,0.611v-0.523h-0.914v4.175h0.914v-2.349
			c0-0.699,0.303-1.086,0.872-1.086c0.176,0,0.387,0.043,0.563,0.088l0.267-0.875C212.329,43.955,212.07,43.955,211.9,43.955
			L211.9,43.955L211.9,43.955z M200.248,46.13c0,1.266,0.872,2.176,2.213,2.176c0.612,0,1.041-0.131,1.484-0.481l-0.443-0.738
			c-0.345,0.265-0.689,0.396-1.083,0.396c-0.738,0-1.266-0.525-1.266-1.352c0-0.783,0.527-1.305,1.266-1.348
			c0.393,0,0.737,0.131,1.083,0.388l0.443-0.733c-0.443-0.352-0.872-0.48-1.484-0.48C201.119,43.955,200.248,44.871,200.248,46.13
			L200.248,46.13L200.248,46.13z M208.675,46.13v-2.087h-0.907v0.523c-0.302-0.396-0.737-0.611-1.307-0.611
			c-1.167,0-2.08,0.916-2.08,2.175c0,1.266,0.914,2.176,2.08,2.176c0.612,0,1.048-0.222,1.307-0.61v0.522h0.907V46.13z
			 M205.336,46.13c0-0.738,0.471-1.347,1.258-1.347c0.738,0,1.265,0.563,1.265,1.347c0,0.741-0.527,1.351-1.265,1.351
			C205.807,47.434,205.336,46.871,205.336,46.13L205.336,46.13z M194.421,43.955c-1.216,0-2.095,0.871-2.095,2.175
			c0,1.305,0.879,2.176,2.137,2.176c0.611,0,1.216-0.176,1.701-0.565l-0.436-0.654c-0.352,0.265-0.788,0.439-1.216,0.439
			c-0.569,0-1.131-0.264-1.265-1.005h3.084v-0.346C196.374,44.826,195.595,43.955,194.421,43.955L194.421,43.955L194.421,43.955z
			 M194.421,44.738c0.563,0,0.956,0.352,1.047,1h-2.179C193.381,45.17,193.774,44.738,194.421,44.738L194.421,44.738z
			 M217.074,46.13v-3.739h-0.914v2.176c-0.309-0.395-0.738-0.611-1.308-0.611c-1.174,0-2.08,0.918-2.08,2.176
			c0,1.266,0.906,2.176,2.08,2.176c0.612,0,1.04-0.222,1.308-0.611v0.523h0.914V46.13z M213.721,46.13
			c0-0.738,0.478-1.347,1.265-1.347c0.745,0,1.258,0.563,1.258,1.347c0,0.741-0.513,1.351-1.258,1.351
			C214.199,47.434,213.721,46.871,213.721,46.13L213.721,46.13z M183.204,46.13v-2.087h-0.914v0.523
			c-0.303-0.396-0.738-0.611-1.3-0.611c-1.174,0-2.088,0.916-2.088,2.175c0,1.266,0.915,2.176,2.088,2.176
			c0.604,0,1.04-0.222,1.3-0.61v0.522h0.914V46.13z M179.816,46.13c0-0.738,0.471-1.347,1.258-1.347
			c0.738,0,1.265,0.563,1.265,1.347c0,0.741-0.527,1.351-1.265,1.351C180.287,47.434,179.816,46.871,179.816,46.13z"/>
		<rect x="187.336" y="12.347" fill="#F26324" width="13.691" height="24.611"/>
		<path fill="#E92328" d="M188.207,24.655c0-5.005,2.348-9.437,5.954-12.308c-2.65-2.084-6.002-3.345-9.657-3.345
			c-8.646,0-15.646,7.004-15.646,15.653c0,8.653,7,15.649,15.646,15.649c3.655,0,7.007-1.263,9.657-3.346
			C190.556,34.13,188.207,29.65,188.207,24.655z"/>
		<path fill="#F59F21" d="M219.505,24.655c0,8.653-6.993,15.649-15.653,15.649c-3.654,0-6.993-1.263-9.649-3.346
			c3.648-2.868,5.953-7.308,5.953-12.303c0-5.005-2.34-9.437-5.953-12.308c2.657-2.084,5.996-3.345,9.649-3.345
			C212.512,9.002,219.505,16.044,219.505,24.655z"/>
	</g>
</g>
<path fill="#FFFFFF" d="M525.13,52.496c0,2.572-2.09,4.664-4.662,4.664H414.724c-2.572,0-4.664-2.092-4.664-4.664V4.809
	c0-2.576,2.092-4.667,4.664-4.667h105.744c2.572,0,4.662,2.091,4.662,4.667V52.496z"/>
<g>
	<path fill="#FFFFFF" d="M386.532,52.473c0,2.575-2.092,4.667-4.668,4.667h-105.74c-2.576,0-4.662-2.092-4.662-4.667V4.785
		c0-2.573,2.086-4.664,4.662-4.664h105.74c2.576,0,4.668,2.09,4.668,4.664V52.473z"/>
	<g>
		
			<radialGradient id="SVGID_1_" cx="461.2998" cy="-856.3193" r="36.3384" gradientTransform="matrix(1 0 0 1 -144.9478 872.3086)" gradientUnits="userSpaceOnUse">
			<stop  offset="0" style="stop-color:#A0D3F2"/>
			<stop  offset="0.0711" style="stop-color:#99D1F2"/>
			<stop  offset="0.1575" style="stop-color:#8CCCF0"/>
			<stop  offset="0.2516" style="stop-color:#72C6EF"/>
			<stop  offset="0.3514" style="stop-color:#55BCEA"/>
			<stop  offset="0.4546" style="stop-color:#23ACE3"/>
			<stop  offset="0.5" style="stop-color:#1FA5DE"/>
			<stop  offset="1" style="stop-color:#3179BC"/>
		</radialGradient>
		<path fill="url(#SVGID_1_)" d="M348.245,9.198h-38.727v38.869h38.727V35.238c0.148-0.225,0.227-0.509,0.227-0.855
			c0-0.398-0.076-0.645-0.227-0.848"/>
		<path fill="#FFFFFF" d="M313.011,26.014l-0.746-1.81l-0.736,1.81 M329.417,25.294c-0.145,0.095-0.318,0.098-0.533,0.098h-1.32
			v-1.016h1.336c0.191,0,0.391,0.011,0.516,0.081c0.145,0.071,0.232,0.211,0.232,0.405C329.647,25.062,329.562,25.22,329.417,25.294
			z M338.849,26.014l-0.75-1.81l-0.746,1.81H338.849z M321.272,27.982h-1.115l-0.01-3.567l-1.574,3.567h-0.953l-1.584-3.571v3.571
			h-2.215l-0.422-1.016h-2.264l-0.426,1.016h-1.18l1.951-4.554h1.615l1.855,4.315v-4.315h1.773l1.424,3.085l1.307-3.085h1.811v4.554
			H321.272z M325.718,27.982h-3.637v-4.554h3.637v0.948h-2.547v0.822h2.486v0.932h-2.486v0.91h2.547V27.982z M330.845,24.655
			c0,0.727-0.48,1.1-0.766,1.212c0.234,0.094,0.438,0.253,0.541,0.383c0.15,0.229,0.176,0.432,0.176,0.836v0.896h-1.098
			l-0.006-0.576c0-0.271,0.027-0.668-0.17-0.889c-0.156-0.158-0.402-0.193-0.793-0.193h-1.168v1.659h-1.09v-4.554h2.502
			c0.557,0,0.967,0.014,1.318,0.221C330.638,23.849,330.845,24.148,330.845,24.655z M332.583,27.982h-1.105v-4.554h1.105V27.982z
			 M345.468,27.982h-1.539l-2.066-3.419v3.419h-2.209l-0.432-1.016h-2.26l-0.41,1.016h-1.275c-0.527,0-1.195-0.115-1.574-0.502
			c-0.383-0.39-0.586-0.91-0.586-1.74c0-0.674,0.119-1.293,0.59-1.782c0.354-0.361,0.906-0.53,1.652-0.53h1.053v0.977h-1.029
			c-0.395,0-0.625,0.057-0.836,0.271c-0.188,0.19-0.313,0.548-0.313,1.03c0,0.489,0.096,0.84,0.303,1.068
			c0.166,0.183,0.467,0.232,0.752,0.232h0.488l1.533-3.577h1.629l1.85,4.312v-4.312h1.654l1.916,3.173v-3.173h1.109V27.982
			L345.468,27.982z M309.519,28.875h1.863l0.42-1.008h0.938l0.422,1.008h3.654v-0.769l0.326,0.776h1.896l0.328-0.787v0.78h9.096
			l-0.004-1.659h0.172c0.125,0.007,0.162,0.014,0.162,0.222v1.438h4.697v-0.387c0.379,0.205,0.975,0.387,1.75,0.387h1.979
			l0.424-1.008h0.938l0.418,1.008h3.811v-0.962l0.576,0.962h3.059v-6.347h-3.027v0.749l-0.42-0.749h-3.105v0.749l-0.387-0.749
			h-4.189c-0.701,0-1.322,0.095-1.822,0.369v-0.369h-2.889v0.369c-0.314-0.281-0.744-0.369-1.23-0.369H318.81l-0.715,1.641
			l-0.723-1.641h-3.332v0.749l-0.361-0.749h-2.84l-1.318,3.019v3.327H309.519z"/>
		<path fill="#FFFFFF" d="M348.245,32.234h-1.984c-0.197,0-0.332,0.006-0.445,0.084c-0.111,0.072-0.154,0.184-0.154,0.33
			c0,0.17,0.1,0.285,0.236,0.334c0.115,0.037,0.242,0.057,0.418,0.057l0.594,0.011c0.59,0.019,0.994,0.119,1.23,0.369
			c0.045,0.036,0.072,0.073,0.105,0.116 M348.245,35.238c-0.27,0.388-0.785,0.58-1.479,0.58h-2.104v-0.978h2.098
			c0.201,0,0.35-0.022,0.438-0.11c0.08-0.074,0.129-0.17,0.129-0.294c0-0.137-0.049-0.241-0.135-0.305
			c-0.08-0.067-0.195-0.103-0.383-0.103c-1.021-0.035-2.299,0.035-2.299-1.408c0-0.657,0.422-1.357,1.563-1.357h2.172v-0.902h-2.018
			c-0.605,0-1.051,0.144-1.359,0.369v-0.369h-2.98c-0.477,0-1.037,0.119-1.299,0.369v-0.369h-5.322v0.369
			c-0.422-0.307-1.139-0.369-1.469-0.369h-3.508v0.369c-0.338-0.322-1.078-0.369-1.533-0.369h-3.932l-0.896,0.971l-0.84-0.971
			h-5.871v6.356h5.764l0.926-0.987l0.871,0.987l3.549,0.004v-1.5h0.344c0.477,0.006,1.029-0.012,1.516-0.226v1.722h2.928V35.06
			h0.145c0.184,0,0.195,0.007,0.195,0.187v1.473h8.895c0.564,0,1.152-0.146,1.48-0.411v0.411h2.822c0.584,0,1.154-0.088,1.596-0.295
			v-1.186H348.245z M343.899,33.419c0.211,0.219,0.326,0.498,0.326,0.964c0,0.979-0.609,1.438-1.711,1.438h-2.115v-0.979h2.107
			c0.209,0,0.354-0.023,0.447-0.111c0.074-0.074,0.125-0.169,0.125-0.293c0-0.137-0.059-0.242-0.129-0.305
			c-0.084-0.066-0.201-0.104-0.387-0.104c-1.02-0.033-2.303,0.035-2.303-1.408c0-0.656,0.422-1.356,1.561-1.356h2.188v0.97h-2
			c-0.195,0-0.326,0.008-0.432,0.086c-0.119,0.071-0.168,0.183-0.168,0.33c0,0.168,0.1,0.284,0.238,0.334
			c0.113,0.037,0.238,0.057,0.424,0.057l0.584,0.014C343.251,33.068,343.655,33.169,343.899,33.419z M334.081,33.134
			c-0.143,0.089-0.326,0.095-0.541,0.095h-1.32v-1.021h1.344c0.191,0,0.385,0.007,0.518,0.085c0.139,0.069,0.223,0.214,0.223,0.411
			C334.302,32.895,334.22,33.05,334.081,33.134z M334.737,33.703c0.238,0.092,0.439,0.252,0.531,0.384
			c0.156,0.222,0.178,0.428,0.184,0.829v0.902h-1.094v-0.567c0-0.271,0.025-0.681-0.176-0.892c-0.162-0.164-0.4-0.207-0.801-0.207
			h-1.164v1.666h-1.09v-4.555h2.514c0.553,0,0.949,0.025,1.313,0.214c0.336,0.208,0.555,0.495,0.555,1.017
			C335.509,33.222,335.022,33.587,334.737,33.703z M336.112,31.264h3.633v0.941h-2.547v0.834h2.484v0.924h-2.484v0.906l2.547,0.002
			v0.947h-3.633V31.264z M328.769,33.369h-1.406v-1.164h1.418c0.395,0,0.672,0.16,0.672,0.563
			C329.45,33.162,329.187,33.369,328.769,33.369z M326.28,35.404l-1.67-1.853l1.67-1.796V35.404z M321.964,34.869h-2.674v-0.905
			h2.391v-0.925h-2.391v-0.834h2.723l1.191,1.332L321.964,34.869z M330.62,32.769c0,1.261-0.949,1.521-1.898,1.521h-1.359v1.529
			h-2.119l-1.334-1.508l-1.393,1.508h-4.314v-4.555h4.381l1.34,1.49l1.383-1.49h3.475C329.647,31.264,330.62,31.507,330.62,32.769z"
			/>
	</g>
</g>
<g>
	<g>
		<path fill="#171617" d="M432.237,26.911c0-0.404-0.043-0.784-0.125-1.135c-0.086-0.355-0.254-0.629-0.516-0.822l2.07-0.313v6.105
			c0,0.064,0.031,0.101,0.1,0.101c0.037,0,0.129-0.08,0.271-0.245s0.326-0.342,0.555-0.531c0.227-0.193,0.498-0.369,0.82-0.533
			c0.314-0.162,0.674-0.246,1.078-0.246c0.582,0,1.074,0.14,1.475,0.421c0.406,0.282,0.725,0.641,0.963,1.079
			c0.242,0.439,0.416,0.921,0.527,1.451c0.109,0.527,0.166,1.047,0.166,1.557c0,0.654-0.08,1.273-0.242,1.859
			c-0.162,0.59-0.408,1.106-0.738,1.549c-0.33,0.447-0.754,0.799-1.273,1.059c-0.512,0.264-1.127,0.395-1.836,0.395
			c-0.313,0-0.598-0.019-0.855-0.049c-0.26-0.033-0.516-0.069-0.766-0.108c-0.252-0.04-0.521-0.074-0.797-0.104
			c-0.277-0.035-0.592-0.05-0.941-0.05c0.023-0.821,0.037-1.642,0.049-2.461c0.012-0.813,0.018-1.634,0.018-2.453v-6.524H432.237z
			 M437.935,32.878c-0.084-0.438-0.215-0.833-0.391-1.188c-0.176-0.352-0.406-0.64-0.699-0.861
			c-0.291-0.225-0.635-0.332-1.039-0.332c-0.686,0-1.213,0.271-1.582,0.812c-0.369,0.544-0.555,1.286-0.555,2.226v1.511
			c0,0.39,0.021,0.763,0.059,1.116c0.039,0.353,0.127,0.656,0.262,0.922c0.137,0.261,0.334,0.472,0.594,0.625
			c0.262,0.158,0.615,0.236,1.068,0.236c0.49,0,0.896-0.119,1.213-0.361c0.318-0.239,0.564-0.549,0.74-0.922
			c0.174-0.373,0.297-0.779,0.357-1.228c0.068-0.442,0.1-0.866,0.1-1.271C438.062,33.742,438.019,33.313,437.935,32.878z"/>
		<path fill="#171617" d="M442.005,28.432c0-0.442-0.014-0.892-0.051-1.356c-0.031-0.461-0.156-0.862-0.375-1.202h2.607
			c-0.219,0.337-0.344,0.738-0.377,1.198c-0.031,0.464-0.049,0.914-0.049,1.357v3.04c0.232-0.039,0.475-0.146,0.729-0.331
			c0.254-0.183,0.51-0.399,0.775-0.664c0.264-0.259,0.523-0.541,0.783-0.847c0.26-0.307,0.51-0.601,0.756-0.886
			c0.531-0.625,0.951-1.139,1.262-1.542c0.311-0.401,0.465-0.72,0.465-0.952c0-0.078,0-0.152,0-0.214
			c0-0.067-0.006-0.12-0.018-0.158h2.402c-0.453,0.404-0.879,0.777-1.271,1.111c-0.395,0.336-0.805,0.745-1.227,1.208l-3.01,3.275
			l3.221,4.636c0.256,0.376,0.541,0.761,0.852,1.142c0.313,0.388,0.613,0.748,0.912,1.086h-2.039c-0.18,0-0.32-0.049-0.424-0.145
			c-0.102-0.098-0.207-0.228-0.311-0.384l-3.488-5.315c-0.039-0.063-0.088-0.134-0.146-0.205c-0.059-0.072-0.105-0.107-0.141-0.107
			c-0.043,0-0.064,0.021-0.072,0.061c-0.008,0.037-0.01,0.076-0.01,0.116v3.423c0,0.438,0.018,0.896,0.049,1.355
			c0.033,0.464,0.158,0.863,0.377,1.201h-2.607c0.219-0.338,0.344-0.737,0.375-1.201c0.037-0.46,0.051-0.911,0.051-1.355V28.432z"/>
		<path fill="#171617" d="M456.278,38.461c-0.086-0.364-0.141-0.657-0.16-0.877c-0.021-0.223-0.068-0.33-0.146-0.33
			c-0.039,0-0.063,0.003-0.076,0.017c-0.014,0.015-0.027,0.024-0.039,0.038c-0.131,0.186-0.256,0.355-0.383,0.518
			c-0.123,0.166-0.268,0.311-0.438,0.434c-0.168,0.122-0.371,0.223-0.604,0.29c-0.236,0.071-0.521,0.11-0.855,0.11
			c-0.68,0-1.25-0.185-1.717-0.549c-0.473-0.367-0.703-0.908-0.703-1.625c0-0.428,0.121-0.797,0.357-1.105
			c0.242-0.307,0.541-0.576,0.896-0.813c0.355-0.235,0.738-0.438,1.146-0.615c0.41-0.176,0.775-0.34,1.1-0.498
			c0.27-0.131,0.498-0.243,0.678-0.334c0.186-0.092,0.326-0.196,0.43-0.313c0.105-0.12,0.176-0.271,0.215-0.456
			c0.037-0.185,0.057-0.43,0.057-0.746c0-0.484-0.109-0.893-0.328-1.226c-0.221-0.339-0.615-0.504-1.184-0.504
			c-0.465,0-0.787,0.1-0.967,0.292c-0.184,0.197-0.32,0.41-0.418,0.646c-0.1,0.235-0.203,0.449-0.32,0.644
			c-0.115,0.196-0.33,0.296-0.641,0.296c-0.221,0-0.395-0.057-0.521-0.17c-0.129-0.108-0.193-0.28-0.193-0.516
			c0-0.328,0.109-0.605,0.326-0.83c0.223-0.229,0.5-0.416,0.836-0.56c0.336-0.142,0.707-0.242,1.115-0.302
			c0.408-0.057,0.797-0.088,1.174-0.088c0.348,0,0.674,0.021,0.986,0.07c0.311,0.045,0.58,0.125,0.813,0.242
			c0.232,0.12,0.418,0.281,0.553,0.492c0.133,0.208,0.203,0.471,0.203,0.783v4.309c0,0.588,0.016,1.16,0.049,1.715
			c0.031,0.555,0.193,1.036,0.492,1.44L456.278,38.461z M453.204,37.211c0.281,0.229,0.639,0.342,1.078,0.342
			c0.289,0,0.541-0.061,0.764-0.188c0.219-0.119,0.404-0.285,0.555-0.484c0.148-0.201,0.258-0.434,0.33-0.693
			c0.07-0.259,0.105-0.525,0.105-0.797v-1.969l-1.047,0.527c-0.365,0.181-0.682,0.346-0.957,0.492
			c-0.273,0.151-0.5,0.31-0.691,0.471c-0.188,0.162-0.326,0.345-0.418,0.546c-0.092,0.2-0.137,0.438-0.137,0.712
			C452.786,36.637,452.927,36.982,453.204,37.211z"/>
		<path fill="#171617" d="M461.181,32.052c0.201,0.259,0.449,0.495,0.746,0.694c0.299,0.205,0.621,0.394,0.971,0.568
			c0.348,0.178,0.672,0.381,0.971,0.608c0.299,0.229,0.543,0.491,0.744,0.794c0.199,0.302,0.303,0.68,0.303,1.136
			c0,0.472-0.104,0.88-0.303,1.228c-0.201,0.348-0.467,0.637-0.793,0.871c-0.33,0.234-0.701,0.412-1.107,0.531
			c-0.408,0.115-0.822,0.176-1.234,0.176c-0.391,0-0.754-0.039-1.1-0.11c-0.346-0.073-0.695-0.179-1.059-0.322
			c-0.102-0.039-0.188-0.085-0.242-0.137c-0.055-0.05-0.088-0.147-0.088-0.295c0-0.233,0.016-0.47,0.039-0.703
			c0.023-0.235,0.045-0.478,0.059-0.728c0.156,0.25,0.305,0.467,0.447,0.662c0.141,0.198,0.303,0.358,0.484,0.498
			c0.184,0.137,0.387,0.241,0.615,0.313c0.227,0.068,0.502,0.105,0.826,0.105c0.582,0,1.033-0.14,1.352-0.412
			c0.318-0.273,0.477-0.691,0.477-1.252c0-0.394-0.092-0.721-0.283-0.988c-0.186-0.266-0.42-0.504-0.705-0.705
			c-0.285-0.202-0.594-0.393-0.932-0.565c-0.338-0.18-0.646-0.379-0.932-0.606c-0.285-0.229-0.52-0.504-0.705-0.822
			c-0.188-0.32-0.281-0.721-0.281-1.206c0-0.742,0.264-1.278,0.783-1.604c0.523-0.324,1.242-0.488,2.16-0.488
			c0.299,0,0.592,0.021,0.883,0.07c0.293,0.045,0.584,0.102,0.883,0.164c0.023,0.014,0.072,0.032,0.145,0.049
			c0.072,0.021,0.107,0.063,0.107,0.127c0,0.184-0.002,0.4-0.01,0.646c-0.008,0.249-0.018,0.479-0.027,0.689
			c-0.197-0.236-0.367-0.434-0.52-0.582c-0.146-0.149-0.297-0.27-0.451-0.354s-0.316-0.145-0.484-0.176
			c-0.17-0.031-0.365-0.05-0.584-0.05c-0.377,0-0.709,0.096-1.008,0.284c-0.299,0.188-0.447,0.492-0.447,0.91
			C460.88,31.465,460.981,31.791,461.181,32.052z"/>
		<path fill="#171617" d="M473.341,36.219c0,0.366,0.01,0.739,0.039,1.126c0.023,0.382,0.115,0.713,0.271,0.987h-1.742v-5.369
			c0-0.317-0.016-0.631-0.049-0.942c-0.033-0.317-0.111-0.597-0.234-0.844c-0.125-0.25-0.301-0.453-0.525-0.61
			c-0.232-0.154-0.541-0.236-0.934-0.236c-0.389,0-0.701,0.082-0.938,0.236c-0.234,0.157-0.422,0.368-0.555,0.629
			c-0.139,0.26-0.232,0.557-0.273,0.881c-0.051,0.328-0.07,0.654-0.07,0.981v3.155c0,0.369,0.014,0.745,0.037,1.129
			c0.027,0.385,0.135,0.716,0.322,0.99h-2.139c0.18-0.271,0.279-0.602,0.309-0.987c0.025-0.384,0.041-0.76,0.041-1.126v-9.312
			c0-0.404-0.023-0.78-0.063-1.131c-0.039-0.355-0.186-0.629-0.445-0.822l1.938-0.313v5.531c0,0.074,0.004,0.146,0.006,0.214
			c0.008,0.063,0.025,0.097,0.061,0.097c0.039,0,0.113-0.061,0.223-0.185c0.111-0.126,0.271-0.263,0.48-0.41
			c0.207-0.151,0.467-0.289,0.77-0.412c0.309-0.124,0.668-0.187,1.086-0.187c0.742,0,1.326,0.197,1.75,0.587
			c0.422,0.394,0.637,1.044,0.637,1.958v4.385H473.341z"/>
	</g>
	<g>
		<polygon fill="#DA396A" points="471.478,12.411 487.938,14.554 484.034,28.218 		"/>
		<path fill="#DA396A" d="M488.524,14.621l12.23,16.264l-14.117,6.764l-1.756-7.152c0,0-0.459-2.603,0.258-4.619L488.524,14.621z"/>
		<polygon fill="#AF2025" points="501.21,30.755 496.657,24.38 504.333,23.08 		"/>
		<polygon fill="#AF2025" points="504.919,23.08 507.78,26.137 503.616,26.137 		"/>
		<polygon fill="#D93E29" points="489.11,37.197 500.757,31.404 500.364,32.771 		"/>
		<polygon fill="#9D1D22" points="484.034,29.648 479.157,46.043 486.573,40.187 		"/>
		<polygon fill="#AF2025" points="477.853,21.192 473.104,15.141 471.284,15.208 		"/>
		<path fill="#C32327" d="M484.776,29.592c0.041,0.549,0.105,0.904,0.105,0.904l1.756,7.152l14.117-6.764l-0.131-0.173
			L484.776,29.592z"/>
	</g>
</g>
</svg>
