<?xml version="1.0" encoding="utf-8"?>
<!-- Generator: Adobe Illustrator 16.0.0, SVG Export Plug-In . SVG Version: 6.00 Build 0)  -->
<!DOCTYPE svg PUBLIC "-//W3C//DTD SVG 1.1//EN" "http://www.w3.org/Graphics/SVG/1.1/DTD/svg11.dtd">
<svg version="1.1" id="Layer_1" xmlns="http://www.w3.org/2000/svg" xmlns:xlink="http://www.w3.org/1999/xlink" x="0px" y="0px"
	 width="1080px" height="1080px" viewBox="0 0 1080 1080" enable-background="new 0 0 1080 1080" xml:space="preserve">
<g>
	<path fill-rule="evenodd" clip-rule="evenodd" fill="#272626" d="M158.693,626.455c-1.638,9.272-3.2,18.103-4.756,26.935
		c-2.54,14.426-5.083,28.85-7.6,43.278c-0.172,0.986-0.563,1.348-1.6,1.337c-5.037-0.053-10.074-0.04-15.112-0.01
		c-0.999,0.007-1.424-0.065-1.197-1.331c4.095-22.896,8.135-45.8,12.177-68.705c2.818-15.971,5.533-31.962,8.451-47.916
		c3.643-19.917,13.694-36.155,28.979-49.216c12.059-10.304,25.848-17.201,41.616-19.513c21.085-3.089,40.003,1.453,54.957,17.506
		c11.066,11.878,15.242,26.388,14.407,42.389c-1.94,37.213-32.509,69.881-68.996,76.893c-17.202,3.306-33.573,1.009-48.387-9.004
		C166.694,635.758,162.506,631.606,158.693,626.455z M229.281,528.164c-5.346,0.115-9.048,0.397-12.688,1.182
		c-27.326,5.9-48.441,30.029-50.374,56.019c-0.85,11.434,1.833,21.955,9.209,30.834c10.844,13.051,25.316,17.478,41.521,14.769
		c24.935-4.169,41.935-18.802,50.9-42.33c4.542-11.918,4.726-24.247-0.709-36.029C259.429,535.89,245.481,528.787,229.281,528.164z"
		/>
	<path fill-rule="evenodd" clip-rule="evenodd" fill="#272626" d="M416.105,625.117c-2.373,2.356-4.592,4.736-7.091,6.821
		c-11.993,10.005-25.767,15.667-41.316,17.118c-14.54,1.357-28.25-1.038-40.586-9.15c-13.945-9.17-22.096-22.248-24.228-38.717
		c-3.055-23.607,4.901-43.892,20.273-61.424c12.951-14.773,29.116-24.502,48.56-28.085c18.81-3.468,36.411-0.506,51.581,11.862
		c12.015,9.797,18.184,22.801,19.774,38.145c0.97,9.363-0.854,18.428-2.459,27.533c-3.089,17.521-6.215,35.036-9.268,52.564
		c-0.234,1.344-0.564,1.917-2.082,1.882c-4.846-0.113-9.697-0.072-14.547-0.021c-1.212,0.014-1.595-0.152-1.318-1.544
		c0.996-4.992,1.824-10.019,2.688-15.037C416.187,626.483,416.413,625.88,416.105,625.117z M363.589,631.665
		c3.315,0,6.577-0.318,9.794-0.925c27.06-5.094,49.82-29.154,51.704-56.406c1.049-15.147-5.042-31.953-21.276-40.76
		c-9.699-5.262-20.136-6.723-30.737-4.557c-25.511,5.209-42.502,20.477-50.542,45.231c-3.826,11.782-3.35,23.67,2.487,34.828
		C333.121,624.567,346.654,631.119,363.589,631.665z"/>
	<path fill-rule="evenodd" clip-rule="evenodd" fill="#272626" d="M769.068,624.83c-2.88,3.088-5.721,5.918-8.878,8.406
		c-11.667,9.196-24.896,14.434-39.693,15.82c-14.055,1.316-27.391-0.845-39.472-8.412c-15.151-9.49-23.737-23.384-25.587-41.066
		c-2.473-23.635,5.874-43.771,21.546-61.02c12.792-14.074,28.563-23.375,47.387-26.862c18.377-3.405,35.643-0.666,50.713,11.067
		c12.061,9.389,18.588,22.021,20.523,37.115c1.139,8.865-0.105,17.551-1.679,26.25c-3.301,18.245-6.478,36.512-9.689,54.772
		c-0.479,2.717-0.438,2.723-3.194,2.723c-4.345,0-8.691-0.083-13.031,0.042c-1.713,0.049-2.15-0.342-1.808-2.071
		c1.039-5.24,1.922-10.51,2.856-15.77C769.105,625.588,769.068,625.336,769.068,624.83z M736.047,528.163
		c-5.117,0.118-8.879,0.401-12.582,1.205c-26.791,5.812-47.558,29.181-50.174,54.572c-1.781,17.319,5.719,34.172,21.598,42.554
		c9.134,4.82,18.938,6.363,28.926,4.538c26.013-4.754,43.44-19.914,51.799-44.988c3.801-11.402,3.49-23.038-1.787-34.031
		C766,535.713,752.222,528.789,736.047,528.163z"/>
	<path fill-rule="evenodd" clip-rule="evenodd" fill="#272626" d="M800.882,562.408c0.086-4.969,0.536-10.002-0.627-14.865
		c-2.456-10.259-7.571-19.131-14.987-26.605c-11.53-11.62-23.25-23.053-34.555-34.896c-1.78-1.867-3.56-3.74-5.274-5.669
		c-8.734-9.83-6.47-24.348,4.921-30.912c18.085-10.424,37.038-19.125,55.95-27.896c4.556-2.113,9.138-4.169,13.7-6.268
		c6.261-2.878,12.737-0.442,15.737,5.956c7.438,15.86,14.972,31.672,22.811,47.346c3.646,7.295,8.61,13.213,15.01,18.105
		c5.755,4.397,11.797,8.362,17.948,12.168c0.91,0.563,1.833,1.102,2.729,1.683c1.296,0.84,2.088,1.993,1.245,3.483
		c-0.809,1.433-2.201,1.273-3.496,0.684c-10.055-4.578-20.293-8.777-29.808-14.465c-4.688-2.802-8.76-6.236-12.029-10.705
		c-4.493-6.143-9.215-12.123-14.113-17.957c-2.807-3.344-3.743-3.553-7.699-1.587c-11.809,5.866-23.646,11.679-35.315,17.819
		c-3.177,1.671-3.378,2.877-1.266,5.724c5.436,7.324,10.851,14.664,16.21,22.046c4.979,6.861,6.116,14.559,4.871,22.797
		c-2.236,14.797-4.825,29.539-6.768,44.381c-0.112,0.862-0.37,1.724-0.696,2.532c-0.34,0.85-0.963,1.504-1.978,1.505
		c-1.095,0.002-1.696-0.718-2.112-1.616c-0.35-0.756-0.418-1.566-0.415-2.396C800.891,569.335,800.882,565.871,800.882,562.408z"/>
	<path fill-rule="evenodd" clip-rule="evenodd" fill="#272626" d="M891.419,510.349c17.099-0.104,32.885,5.547,45.236,19.186
		c7.33,8.094,11.443,17.855,13.066,28.584c2.688,17.761-1.542,34.122-10.874,49.211c-13.334,21.557-32.342,35.47-57.232,40.62
		c-18.585,3.848-36.07,0.938-51.442-10.933c-11.593-8.951-17.935-21.048-20.197-35.298c-2.7-16.988,1.202-32.79,9.802-47.426
		c12.978-22.088,31.956-36.293,56.956-42.265C881.214,510.957,885.798,510.574,891.419,510.349z M827.156,589.866
		c0.6,15.247,6.923,28.069,21.266,36.234c9.219,5.247,19.306,6.772,29.574,4.938c24.809-4.433,42.106-18.565,51.168-42.094
		c4.678-12.146,4.759-24.646-0.764-36.73c-7.333-16.037-24.896-26.262-46.057-23.598c-13.418,1.689-24.99,7.486-34.78,16.658
		C834.964,557.076,827.707,571.495,827.156,589.866z"/>
	<path fill-rule="evenodd" clip-rule="evenodd" fill="#272626" d="M554,525.298c3.775-2.951,7.35-5.495,11.252-7.528
		c15.194-7.913,31.044-10.441,47.605-5.201c17.354,5.487,29.259,20.937,30.912,39.059c0.733,8.045-0.775,15.794-2.145,23.594
		c-3.588,20.435-7.21,40.863-10.82,61.294c-0.34,1.919-0.77,3.825-1.022,5.755c-0.133,0.999-0.441,1.39-1.507,1.378
		c-4.975-0.051-9.95-0.083-14.924,0.014c-1.529,0.029-1.6-0.588-1.385-1.777c1.466-8.104,2.906-16.213,4.34-24.322
		c3.052-17.273,6.226-34.525,9.104-51.827c3.026-18.191-8.146-34.185-26.224-37.447c-11.535-2.082-22.129,0.979-31.676,7.488
		c-11.918,8.127-19.023,19.326-21.384,33.699c-3.115,18.981-6.637,37.897-9.983,56.841c-0.93,5.263-1.907,10.518-2.759,15.793
		c-0.191,1.189-0.586,1.558-1.78,1.543c-4.912-0.063-9.825-0.086-14.735,0.01c-1.5,0.029-1.552-0.503-1.333-1.724
		c2.122-11.819,4.195-23.646,6.282-35.473c3.333-18.883,6.663-37.768,9.999-56.65c3.347-18.945,6.698-37.889,10.049-56.832
		c1.522-8.605,3.075-17.204,4.53-25.821c0.201-1.198,0.61-1.503,1.767-1.488c4.911,0.062,9.825,0.063,14.736-0.001
		c1.229-0.016,1.623,0.247,1.392,1.545c-2.847,15.904-5.651,31.817-8.467,47.729C555.237,518.264,554.654,521.583,554,525.298z"/>
	<path fill-rule="evenodd" clip-rule="evenodd" fill="#272626" d="M498.102,465.701c-2.329,13.184-4.629,26.178-6.921,39.174
		c-0.59,3.344-1.058,6.713-1.789,10.023c-0.341,1.551,0.23,1.598,1.451,1.594c9.824-0.036,19.648,0.02,29.471-0.057
		c1.748-0.013,2.211,0.276,1.813,2.151c-0.963,4.548-1.677,9.149-2.413,13.742c-0.229,1.419-0.618,2.064-2.321,2.044
		c-9.759-0.113-19.52-0.023-29.28-0.087c-1.579-0.011-2.212,0.308-2.516,2.052c-4.66,26.754-9.426,53.49-14.164,80.232
		c-1.502,8.479-3.021,16.956-4.457,25.447c-0.207,1.216-0.562,1.663-1.865,1.642c-4.847-0.084-9.698-0.083-14.545-0.003
		c-1.376,0.021-1.713-0.38-1.475-1.699c1.957-10.889,3.874-21.786,5.8-32.682c3.479-19.686,6.952-39.373,10.433-59.059
		c0.832-4.705,1.646-9.413,2.547-14.104c0.264-1.381,0.038-1.891-1.513-1.832c-3.271,0.122-6.548,0.026-9.823,0.044
		c-0.847,0.005-1.404,0.032-1.169-1.203c0.987-5.186,1.888-10.392,2.736-15.603c0.182-1.121,0.831-1.053,1.604-1.051
		c3.274,0.008,6.553-0.094,9.821,0.047c1.487,0.064,1.896-0.519,2.12-1.82c2.151-12.451,4.348-24.894,6.534-37.338
		c0.621-3.529,1.261-7.055,1.867-10.587c0.104-0.608,0.19-1.081,0.983-1.079C486.688,465.709,492.345,465.701,498.102,465.701z"/>
	<path fill-rule="evenodd" clip-rule="evenodd" fill="#E73E3C" d="M776.837,383.004c19.163-0.226,29.781,10.324,35.029,21.605
		c0.599,1.288-0.193,1.471-0.991,1.861c-17.211,8.416-34.412,16.85-51.629,25.252c-4.007,1.955-8.063,3.812-12.102,5.702
		c-0.666,0.312-1.284,0.667-2.133,0.43c-5.416-1.515-10.684-3.349-15.143-6.929c-5.48-4.402-6.998-10.149-4.324-16.68
		c2.574-6.285,7.185-11.056,12.175-15.41C749.72,388.367,763.894,383.478,776.837,383.004z"/>
	<path fill-rule="evenodd" clip-rule="evenodd" fill="#272626" d="M901.118,424.137c-0.037,14.709-11.773,26.537-26.284,26.485
		c-14.307-0.05-25.951-11.913-25.94-26.429c0.009-14.687,11.757-26.57,26.242-26.549
		C889.628,397.664,901.153,409.418,901.118,424.137z"/>
</g>
</svg>
