<?xml version="1.0" encoding="utf-8"?>
<!-- Generator: Adobe Illustrator 16.0.0, SVG Export Plug-In . SVG Version: 6.00 Build 0)  -->
<!DOCTYPE svg PUBLIC "-//W3C//DTD SVG 1.1//EN" "http://www.w3.org/Graphics/SVG/1.1/DTD/svg11.dtd">
<svg version="1.1" id="Layer_1" xmlns="http://www.w3.org/2000/svg" xmlns:xlink="http://www.w3.org/1999/xlink" x="0px" y="0px"
	 width="24px" height="24px" viewBox="0 0 24 24" enable-background="new 0 0 24 24" xml:space="preserve">
<g>
	<circle fill="#171617" cx="12" cy="12" r="12"/>
	<g>
		<path fill="#FFFFFF" d="M4.537,11.61l1.905-1.184c0.054-0.033,0.122,0.004,0.122,0.067v4.612c0,0.042,0.032,0.076,0.074,0.079
			c0.566,0.048,4.227,0.226,4.227-3.124c0-3.177-2.815-3.371-4.26-3.227l-2.093,1.389C4.506,10.227,4.5,10.223,4.5,10.218V6.76
			c0-0.044,0.036-0.081,0.081-0.081h2.936c0,0,5.458-0.004,5.458,5.317c0,5.321-5.202,5.321-5.202,5.321H4.581
			c-0.045,0-0.081-0.035-0.081-0.079v-5.561C4.5,11.65,4.514,11.625,4.537,11.61"/>
		<g>
			<path fill="#FFFFFF" d="M17.374,8.823c-0.006,0.006-0.014,0.01-0.024,0.01h-1.308c0,0-1.661,0-2.704,1.881
				c-0.001,0.001-0.003,0.001-0.003,0c-0.013-0.073-0.223-1.351-1.062-2.221c0,0,1.573-1.83,3.872-1.83h3.339
				c0.005,0,0.008,0.008,0.005,0.011L17.374,8.823z"/>
			<path fill="#FFFFFF" d="M13.359,13.239c-0.041,0.218-0.252,1.312-1.068,2.256c0,0,1.391,1.797,3.962,1.826
				c2.156,0.026,2.979,0.01,3.189,0.004c0.031-0.002,0.058-0.028,0.058-0.061v-4.333v-1.96c0-0.045-0.048-0.074-0.088-0.053
				l-3.784,1.948c-0.033,0.018-0.021,0.066,0.016,0.066h1.632c0.032,0,0.059,0.026,0.059,0.059l0.016,2.092
				c0,0.032-0.026,0.059-0.059,0.061l-0.977,0.021c-0.387,0.007-0.771-0.06-1.129-0.206c-0.599-0.246-1.422-0.747-1.808-1.721
				C13.375,13.227,13.361,13.229,13.359,13.239"/>
		</g>
	</g>
</g>
</svg>
